<svg xmlns="http://www.w3.org/2000/svg" width="1200" height="630" viewBox="0 0 1200 630">
  <rect width="1200" height="630" fill="#050814"/>
  <line x1="0" y1="210" x2="1200" y2="210" stroke="rgba(255,255,255,0.03)" stroke-width="1"/>
  <line x1="0" y1="420" x2="1200" y2="420" stroke="rgba(255,255,255,0.03)" stroke-width="1"/>
  <line x1="400" y1="0" x2="400" y2="630" stroke="rgba(255,255,255,0.03)" stroke-width="1"/>
  <line x1="800" y1="0" x2="800" y2="630" stroke="rgba(255,255,255,0.03)" stroke-width="1"/>
  <circle cx="960" cy="315" r="265" fill="none" stroke="rgba(255,255,255,0.06)" stroke-width="1"/>
  <circle cx="960" cy="315" r="185" fill="none" stroke="rgba(255,255,255,0.04)" stroke-width="1"/>
  <ellipse cx="960" cy="315" rx="135" ry="265" fill="none" stroke="rgba(255,255,255,0.04)" stroke-width="1"/>
  <ellipse cx="960" cy="315" rx="265" ry="100" fill="none" stroke="rgba(255,255,255,0.03)" stroke-width="1"/>
  <circle cx="840" cy="255" r="15" fill="#e53935" opacity="0.9"/>
  <circle cx="840" cy="255" r="27" fill="none" stroke="#e53935" opacity="0.25" stroke-width="1.5"/>
  <circle cx="975" cy="225" r="11" fill="#e53935" opacity="0.85"/>
  <circle cx="975" cy="225" r="20" fill="none" stroke="#e53935" opacity="0.2" stroke-width="1.5"/>
  <circle cx="1030" cy="355" r="9" fill="#8b5cf6" opacity="0.8"/>
  <circle cx="890" cy="385" r="13" fill="#e53935" opacity="0.85"/>
  <circle cx="890" cy="385" r="22" fill="none" stroke="#e53935" opacity="0.2" stroke-width="1.5"/>
  <circle cx="950" cy="430" r="8" fill="#8b5cf6" opacity="0.75"/>
  <circle cx="1070" cy="275" r="10" fill="#f59e0b" opacity="0.8"/>
  <circle cx="870" cy="190" r="8" fill="#f59e0b" opacity="0.75"/>
  <circle cx="1000" cy="390" r="7" fill="#8b5cf6" opacity="0.7"/>
  <rect x="60" y="76" width="80" height="28" rx="3" fill="rgba(229,57,53,0.12)" stroke="rgba(229,57,53,0.35)" stroke-width="1"/>
  <circle cx="79" cy="90" r="5" fill="#e53935"/>
  <text x="92" y="95" font-family="-apple-system,BlinkMacSystemFont,sans-serif" font-size="11" font-weight="700" fill="#e53935" letter-spacing="0.1em">LIVE</text>
  <text x="60" y="200" font-family="-apple-system,BlinkMacSystemFont,sans-serif" font-size="80" font-weight="700" fill="#f0f4f8" letter-spacing="-0.02em">Hantamaps</text>
  <text x="62" y="240" font-family="-apple-system,BlinkMacSystemFont,sans-serif" font-size="30" font-weight="400" fill="rgba(191,203,216,0.5)">.com</text>
  <rect x="60" y="268" width="72" height="3" rx="1" fill="#e53935"/>
  <text x="60" y="322" font-family="-apple-system,BlinkMacSystemFont,sans-serif" font-size="27" font-weight="400" fill="#bfcbd8">Live Hantavirus Outbreak Tracker</text>
  <text x="60" y="360" font-family="-apple-system,BlinkMacSystemFont,sans-serif" font-size="19" font-weight="400" fill="rgba(191,203,216,0.45)">2026 Andes Virus outbreak linked to MV Hondius</text>
  <rect x="60" y="418" width="152" height="72" rx="3" fill="rgba(229,57,53,0.07)" stroke="rgba(229,57,53,0.18)" stroke-width="1"/>
  <text x="76" y="443" font-family="-apple-system,BlinkMacSystemFont,sans-serif" font-size="10" font-weight="700" fill="rgba(191,203,216,0.45)" letter-spacing="0.1em">CONFIRMED</text>
  <text x="76" y="476" font-family="-apple-system,BlinkMacSystemFont,sans-serif" font-size="34" font-weight="700" fill="#ef5350">10 </text>
  <text x="122" y="476" font-family="-apple-system,BlinkMacSystemFont,sans-serif" font-size="13" fill="rgba(191,203,216,0.45)">countries</text>
  <rect x="228" y="418" width="152" height="72" rx="3" fill="rgba(245,158,11,0.07)" stroke="rgba(245,158,11,0.18)" stroke-width="1"/>
  <text x="244" y="443" font-family="-apple-system,BlinkMacSystemFont,sans-serif" font-size="10" font-weight="700" fill="rgba(191,203,216,0.45)" letter-spacing="0.1em">SUSPECTED</text>
  <text x="244" y="476" font-family="-apple-system,BlinkMacSystemFont,sans-serif" font-size="34" font-weight="700" fill="#f59e0b">8 </text>
  <text x="274" y="476" font-family="-apple-system,BlinkMacSystemFont,sans-serif" font-size="13" fill="rgba(191,203,216,0.45)">countries</text>
  <rect x="396" y="418" width="152" height="72" rx="3" fill="rgba(139,92,246,0.07)" stroke="rgba(139,92,246,0.18)" stroke-width="1"/>
  <text x="412" y="443" font-family="-apple-system,BlinkMacSystemFont,sans-serif" font-size="10" font-weight="700" fill="rgba(191,203,216,0.45)" letter-spacing="0.1em">MONITORING</text>
  <text x="412" y="476" font-family="-apple-system,BlinkMacSystemFont,sans-serif" font-size="34" font-weight="700" fill="#8b5cf6">23 </text>
  <text x="452" y="476" font-family="-apple-system,BlinkMacSystemFont,sans-serif" font-size="13" fill="rgba(191,203,216,0.45)">countries</text>
  <text x="60" y="578" font-family="-apple-system,BlinkMacSystemFont,sans-serif" font-size="15" fill="rgba(191,203,216,0.25)">hantamaps.com</text>
</svg>
